<svg xmlns="http://www.w3.org/2000/svg" xmlns:svg="http://www.w3.org/2000/svg" xmlns:xlink="http://www.w3.org/1999/xlink" id="Layer_1" x="0" y="0" version="1.1" viewBox="0 0 100 100" xml:space="preserve" style="enable-background:new 0 0 100 100"><path d="M50,958.4c-24.3,0-44,19.7-44,44s19.7,44,44,44s44-19.7,44-44S74.3,958.4,50,958.4z M50,962.4c22.1,0,40,17.9,40,40s-17.9,40-40,40s-40-17.9-40-40S27.9,962.4,50,962.4z M71.8,984.3c-0.5,0.1-1,0.3-1.3,0.7	l-25.6,30.3l-15.5-15.5c-0.8-0.8-2-0.8-2.8,0s-0.8,2,0,2.8c0,0,0,0,0.1,0.1l17,17c0.8,0.8,2,0.8,2.8,0c0,0,0.1-0.1,0.1-0.1l27-32	c0.7-0.8,0.7-2.1-0.2-2.8C72.9,984.4,72.4,984.3,71.8,984.3z" transform="translate(0,-952.36218)"/></svg>